<?xml version="1.0" encoding="UTF-8" standalone="no"?>
<svg
   xmlns:dc="http://purl.org/dc/elements/1.1/"
   xmlns:cc="http://creativecommons.org/ns#"
   xmlns:rdf="http://www.w3.org/1999/02/22-rdf-syntax-ns#"
   xmlns:svg="http://www.w3.org/2000/svg"
   xmlns="http://www.w3.org/2000/svg"
   xmlns:sodipodi="http://sodipodi.sourceforge.net/DTD/sodipodi-0.dtd"
   xmlns:inkscape="http://www.inkscape.org/namespaces/inkscape"
   id="Layer_1"
   data-name="Layer 1"
   viewBox="0 0 87.5 100"
   version="1.1"
   sodipodi:docname="logo.svg"
   inkscape:version="1.0.1 (3bc2e813f5, 2020-09-07)">
  <metadata
     id="metadata19">
    <rdf:RDF>
      <cc:Work
         rdf:about="">
        <dc:format>image/svg+xml</dc:format>
        <dc:type
           rdf:resource="http://purl.org/dc/dcmitype/StillImage" />
      </cc:Work>
    </rdf:RDF>
  </metadata>
  <sodipodi:namedview
     pagecolor="#ffffff"
     bordercolor="#666666"
     borderopacity="1"
     objecttolerance="10"
     gridtolerance="10"
     guidetolerance="10"
     inkscape:pageopacity="0"
     inkscape:pageshadow="2"
     inkscape:window-width="1920"
     inkscape:window-height="1044"
     id="namedview17"
     showgrid="false"
     inkscape:zoom="4.195"
     inkscape:cx="75.305614"
     inkscape:cy="50.714818"
     inkscape:window-x="1920"
     inkscape:window-y="0"
     inkscape:window-maximized="1"
     inkscape:current-layer="Layer_1" />
  <defs
     id="defs4">
    <style
       id="style2">.cls-1{fill:#1697f6;}.cls-2{fill:#7bc6ff;}.cls-3{fill:#1867c0;}.cls-4{fill:#aeddff;}</style>
  </defs>
  <title
     id="title6">Artboard 46</title>
  <path
     d="m 69.939398,25.774307 c 0,0 -3.247921,3.179851 -7.206454,2.460305 -2.978452,-0.540701 -25.816338,-4.829974 -34.458366,-6.203313 -1.056436,-0.168657 -3.244141,-0.227515 -4.226585,-0.664792 -1.400324,-0.623567 -3.978271,-3.203483 -3.951322,-4.811908 0.02697,-1.608925 3.701149,-0.632623 4.381947,-0.554255 0.681474,0.07835 3.803837,0.688425 3.803837,0.688425 0,0 2.514241,-7.591601 3.407758,-9.9408511 0.884305,-2.3230502 1.294656,-8.5328793 15.353861,-4.7893719 4.254491,1.1330057 13.41909,1.4382927 14.557026,3.1444523 1.040597,1.5571036 1.310764,8.7488617 1.331826,11.1956277 0.02248,2.44603 -0.01251,7.668403 0.656395,8.019524 0.319688,0.167265 1.865199,0.623096 3.354104,0.83383 1.626208,0.2283 3.184172,0.222941 2.995973,0.622327"
     style="fill:#181823;fill-opacity:1;fill-rule:nonzero;stroke:none;stroke-width:0.068718"
     id="path28-6" />
  <path
     d="m 61.699757,59.041807 c -0.137396,1.087403 -0.863887,3.473696 -1.637463,4.348203 -0.96755,1.095507 -2.726745,1.982521 -5.272076,1.982521 -2.544544,0 -5.476264,-0.596739 -6.543559,-3.473662 -1.068079,-2.87842 -1.273059,-4.349673 -1.11363,-5.202086 0.158642,-0.852398 1.13562,-1.535353 2.817848,-1.918442 1.681438,-0.383092 3.408428,-0.656427 4.839341,-0.682222 0,0 4.295886,-0.213642 5.817891,0.575418 1.522803,0.789024 1.22752,3.282866 1.091648,4.37027 z m -21.344322,2.835696 c -1.067295,2.876913 -3.999019,3.473672 -6.543564,3.473672 -2.545326,0 -4.304518,-0.887014 -5.273644,-1.982531 -0.771216,-0.873779 -1.498454,-3.260791 -1.635106,-4.348195 -0.137443,-1.088164 -0.432729,-3.581981 1.090071,-4.370288 1.523586,-0.788322 5.818679,-0.5754 5.818679,-0.5754 1.430915,0.02646 3.157907,0.29838 4.839348,0.682223 1.683011,0.383842 2.659987,1.066044 2.818629,1.919177 0.157856,0.851686 -0.04634,2.323667 -1.114413,5.201342 z m 17.320956,-8.889419 c -1.043734,0 -5.568153,0 -7.839391,0.59675 -2.162862,0.568012 -5.233593,0.730093 -5.524959,0.744105 v -0.01885 c 0,0 -3.274921,-0.150436 -5.546946,-0.746294 -2.272026,-0.596757 -6.794874,-0.596757 -7.839395,-0.596757 -1.046091,0 -6.908749,0.745575 -7.112156,0.831021 l 0.295294,2.580041 c 0,0 0.998964,-0.106864 1.317035,1.512489 0.319639,1.620089 1.694007,4.982546 2.725962,6.117836 1.069649,1.173612 3.319686,1.961927 5.545377,1.961927 2.227262,0 3.749274,-0.256392 5.112645,-1.130154 1.364158,-0.874487 2.5469,-2.599935 3.227017,-4.625942 0.678546,-2.014225 0.710746,-2.848179 2.253963,-2.856291 v 0.02084 c 1.563638,0 1.591911,0.831758 2.274381,2.857765 0.680902,2.024543 1.86286,3.751453 3.227017,4.625206 1.363373,0.874505 2.885385,1.130161 5.112645,1.130161 2.225691,0 4.476508,-0.788314 5.543814,-1.961934 1.033509,-1.134539 2.408673,-4.497747 2.72752,-6.117803 0.318075,-1.620079 1.317044,-1.51326 1.317044,-1.51326 l 0.296072,-2.579304 c -0.204176,-0.08538 -6.067634,-0.831024 -7.112939,-0.831024"
     style="fill:#181823;fill-opacity:1;fill-rule:nonzero;stroke:none;stroke-width:0.0760653"
     id="path40" />
  <path
     d="m 53.218732,31.605531 c 0,0 -4.169124,-0.740749 -6.483847,0.278225 -2.315452,1.019708 -3.705886,3.427658 -5.466329,3.799122 -1.761902,0.369269 -5.279873,0.64751 -7.226047,-0.185818 -1.946172,-0.83397 -5.281324,-0.371447 -6.301026,0.926471 -1.018973,1.297197 -2.40868,4.353395 -0.833245,6.484578 1.573984,2.13118 1.204706,3.056197 0.925016,4.075889 -0.276047,1.019711 -2.500451,3.984128 -2.313266,5.651351 0.184268,1.668658 -0.371462,4.354829 -0.927928,4.539848 -0.557923,0.184991 -2.407954,-2.500468 -2.965148,-3.150156 -0.55355,-0.648961 -2.593682,-4.352656 -2.315448,-5.929552 0.276773,-1.573982 -1.666488,-2.315464 -1.203981,-5.558123 0,0 -2.037944,-3.613383 -0.648965,-6.207072 1.388978,-2.593675 0.898795,-2.796869 2.802723,-4.702262 0.913361,-0.914107 0.161709,-3.078777 -0.115808,-2.524505 -0.277504,0.555744 0.09395,-3.054726 0.740742,-4.63162 0.647511,-1.573996 3.241192,-3.889446 6.11457,-3.241184 0,0 -0.370008,-0.372199 1.112201,-1.667218 1.481481,-1.298671 3.426927,-3.984863 6.299573,-3.799124 2.872647,0.184987 7.039586,-3.150155 13.24811,2.316171 0,0 4.075896,0.18436 4.909866,1.482953 0.833971,1.295019 6.949997,-0.557925 9.633998,7.318531 0,0 6.763535,5.093405 6.115287,11.116949 0,0 -0.376555,3.056182 0.04372,4.538381 0.41882,1.483676 -0.60017,6.949999 -1.804856,7.967531 -1.202522,1.01824 -0.739297,5.577023 -1.944718,6.679028 -1.203992,1.102748 -0.554283,-6.864062 -2.963697,-8.901993 -2.410135,-2.038665 -1.946177,-5.187362 -1.298664,-6.11457 0.648969,-0.926457 0.92793,-9.172228 -7.132811,-10.561925"
     style="fill:#181823;fill-opacity:1;fill-rule:nonzero;stroke:none;stroke-width:0.0728359"
     id="path58" />
  <path
     d="m 37.24172,75.766769 c 0,0 -5.534192,4.240613 -8.421522,0.58875 -2.885674,-3.65021 2.296374,-2.886228 1.354938,-1.177499 0,0 2.276477,-1.469362 0.353247,-2.827066 -2.001728,-1.414646 -4.116232,1.003351 -3.651869,3.193576 0.413504,1.943141 5.92171,4.612117 12.608512,3.190848 4.824383,-1.025467 4.824383,-4.677339 4.824383,-4.677339 0,0 -2.650729,-1.64904 -7.067689,1.70873"
     style="fill:#181823;fill-opacity:1;fill-rule:nonzero;stroke:none;stroke-width:0.0552809"
     id="path110" />
  <path
     d="m 58.090432,72.350954 c -1.923781,1.357704 0.35435,2.827066 0.35435,2.827066 -0.942539,-1.708729 4.240062,-2.472711 1.353839,1.177499 -2.886228,3.651863 -8.421524,-0.58875 -8.421524,-0.58875 -4.416408,-3.35777 -7.067688,-1.70873 -7.067688,-1.70873 0,0 0,3.651872 4.823828,4.677339 6.687906,1.421269 12.197219,-1.247707 12.60796,-3.190848 0.46381,-2.190225 -1.647931,-4.608222 -3.650765,-3.193576"
     style="fill:#181823;fill-opacity:1;fill-rule:nonzero;stroke:none;stroke-width:0.0552809"
     id="path112" />
  <path
     d="m 54.729156,92.231928 c 0,-2.701085 -1.310156,-6.223037 -1.310156,-6.223037 -2.765106,0.472646 -7.435918,4.224588 -7.759868,4.487164 -0.132414,-0.111034 -0.476798,-0.255953 -1.369705,-0.255953 -0.894441,0 -1.238841,0.144784 -1.372289,0.255953 -0.32113,-0.262576 -4.994104,-4.014518 -7.758819,-4.487164 0,0 -1.310111,3.521952 -1.310111,6.223037 0,2.700377 1.310111,6.222403 1.310111,6.222403 2.764715,-0.472721 7.437689,-4.225812 7.758819,-4.4884 0.13351,0.111278 0.477848,0.256112 1.372289,0.256112 0.892907,0 1.23737,-0.144944 1.369705,-0.256112 0.322837,0.262588 4.994762,4.015679 7.759868,4.4884 0,0 1.310156,-3.522026 1.310156,-6.222403"
     style="fill:#81c784;fill-opacity:1;fill-rule:nonzero;stroke:none;stroke-width:0.0552809"
     id="path114" />
  <path
     d="m 54.395943,93.001686 c -6.2e-4,-2.839382 -1.264602,-6.541376 -1.264602,-6.541376 -2.665884,0.497364 -7.168411,4.442298 -7.480671,4.718376 -0.127712,-0.116909 -0.459765,-0.268965 -1.320656,-0.268794 -0.862395,1.71e-4 -1.194417,0.152472 -1.323054,0.269334 -0.309674,-0.275956 -4.815964,-4.219091 -7.481675,-4.715402 0,0 -1.262363,3.702496 -1.26175,6.541865 6.21e-4,2.838611 1.264555,6.540679 1.264555,6.540679 2.665491,-0.497425 7.170088,-4.443546 7.479654,-4.719636 0.128809,0.117031 0.460767,0.269125 1.323163,0.268941 0.860891,-1.73e-4 1.192958,-0.152632 1.320546,-0.269469 0.31132,0.275957 4.816605,4.220278 7.482692,4.716651 0,0 1.262411,-3.702557 1.261798,-6.541169"
     style="fill:#181823;fill-opacity:1;fill-rule:nonzero;stroke:none;stroke-width:0.0556532"
     id="path114-7" />
  <path
     d="m 62.78068,12.196065 c 0,0 -10.722749,1.196846 -16.428974,1.196846 -5.70733,0 -15.521864,-4.2497179 -15.521864,-4.2497179 l -0.250037,0.6200055 -0.214015,0.7583764 -0.114157,0.231262 -0.144823,0.434739 -0.117511,0.404183 -0.58088,1.709434 c 0,0 7.984441,4.252041 16.793816,4.252041 8.809319,0 16.74128,0.08696 16.74128,0.08696 l 0.0075,-2.309056 -0.101775,-2.288214"
     style="fill:#81c784;fill-opacity:1;fill-rule:nonzero;stroke:none;stroke-width:0.0552809"
     id="path22"
     sodipodi:nodetypes="cscccccccsccc" />
</svg>
