<?xml version="1.0" encoding="UTF-8" standalone="no"?>
<svg
   xmlns:dc="http://purl.org/dc/elements/1.1/"
   xmlns:cc="http://creativecommons.org/ns#"
   xmlns:rdf="http://www.w3.org/1999/02/22-rdf-syntax-ns#"
   xmlns:svg="http://www.w3.org/2000/svg"
   xmlns="http://www.w3.org/2000/svg"
   xmlns:sodipodi="http://sodipodi.sourceforge.net/DTD/sodipodi-0.dtd"
   xmlns:inkscape="http://www.inkscape.org/namespaces/inkscape"
   id="Layer_1"
   data-name="Layer 1"
   viewBox="0 0 87.5 100"
   version="1.1"
   sodipodi:docname="logo_01.svg"
   inkscape:version="1.0.1 (3bc2e813f5, 2020-09-07)">
  <metadata
     id="metadata19">
    <rdf:RDF>
      <cc:Work
         rdf:about="">
        <dc:format>image/svg+xml</dc:format>
        <dc:type
           rdf:resource="http://purl.org/dc/dcmitype/StillImage" />
        <dc:title>Artboard 46</dc:title>
      </cc:Work>
    </rdf:RDF>
  </metadata>
  <sodipodi:namedview
     pagecolor="#ffffff"
     bordercolor="#666666"
     borderopacity="1"
     objecttolerance="10"
     gridtolerance="10"
     guidetolerance="10"
     inkscape:pageopacity="0"
     inkscape:pageshadow="2"
     inkscape:window-width="1920"
     inkscape:window-height="1044"
     id="namedview17"
     showgrid="false"
     inkscape:zoom="4.195"
     inkscape:cx="75.305614"
     inkscape:cy="50.714818"
     inkscape:window-x="1920"
     inkscape:window-y="0"
     inkscape:window-maximized="1"
     inkscape:current-layer="Layer_1" />
  <defs
     id="defs4">
    <style
       id="style2">.cls-1{fill:#1697f6;}.cls-2{fill:#7bc6ff;}.cls-3{fill:#1867c0;}.cls-4{fill:#aeddff;}</style>
  </defs>
  <title
     id="title6">Artboard 46</title>
  <path
     d="m 76.379811,32.135454 c 0,0 -3.954332,3.871457 -8.773831,2.995412 -3.626255,-0.658301 -31.431299,-5.880476 -41.952937,-7.552511 -1.286206,-0.205339 -3.949729,-0.276999 -5.145852,-0.809381 -1.704889,-0.759191 -4.84353,-3.90023 -4.81072,-5.858481 0.03284,-1.958861 4.506136,-0.770217 5.335005,-0.674804 0.829692,0.09539 4.631157,0.838155 4.631157,0.838155 0,0 3.06108,-9.242746 4.148934,-12.1029506 1.076638,-2.8283052 1.576239,-10.3887495 18.69327,-5.8310421 5.179828,1.3794296 16.337693,1.7511153 17.723127,3.828359 1.266923,1.8957673 1.59585,10.6517077 1.621493,13.6306357 0.02737,2.978033 -0.01523,9.336254 0.799159,9.763742 0.389218,0.203644 2.270872,0.758617 4.083609,1.015185 1.979902,0.277955 3.876718,0.27143 3.647586,0.757681"
     style="fill:#181823;fill-opacity:1;fill-rule:nonzero;stroke:none;stroke-width:0.0836639"
     id="path28-6" />
  <path
     d="m 66.348079,72.638515 c -0.16728,1.32391 -1.05178,4.229212 -1.993606,5.293922 -1.177988,1.333776 -3.319803,2.413712 -6.418733,2.413712 -3.097974,0 -6.667332,-0.726528 -7.96676,-4.229172 -1.300382,-3.504465 -1.549945,-5.295711 -1.355841,-6.333521 0.193147,-1.037791 1.382613,-1.869286 3.43072,-2.335695 2.047145,-0.466414 4.149749,-0.799198 5.891881,-0.830603 0,0 5.230225,-0.260109 7.083261,0.700569 1.854007,0.960633 1.494501,3.996878 1.329078,5.320788 z m -25.986636,3.45245 c -1.299427,3.502631 -4.868791,4.229182 -7.966765,4.229182 -3.098925,0 -5.240736,-1.079936 -6.420643,-2.413724 -0.938952,-1.063823 -1.824363,-3.970001 -1.990736,-5.293911 -0.167336,-1.324836 -0.526845,-4.361049 1.327158,-5.32081 1.854961,-0.959779 7.084221,-0.700547 7.084221,-0.700547 1.742133,0.03222 3.84474,0.363276 5.891889,0.830603 2.049059,0.467327 3.238524,1.297905 3.43167,2.336592 0.19219,1.036924 -0.05642,2.829056 -1.356794,6.332615 z M 61.449645,65.268129 c -1.270743,0 -6.779207,0 -9.544431,0.726541 -2.633276,0.691552 -6.371881,0.888886 -6.726617,0.905945 v -0.02295 c 0,0 -3.987205,-0.183155 -6.753387,-0.90861 -2.766183,-0.726549 -8.272734,-0.726549 -9.544435,-0.726549 -1.273612,0 -8.411377,0.907734 -8.659025,1.011764 l 0.35952,3.141191 c 0,0 1.216235,-0.130106 1.603486,1.84145 0.389159,1.972453 2.062447,6.066232 3.318848,7.448444 1.302294,1.428868 4.041706,2.388639 6.751477,2.388639 2.711683,0 4.564727,-0.312157 6.224626,-1.375959 1.660858,-1.064684 3.100842,-3.165412 3.928883,-5.632068 0.826126,-2.452312 0.86533,-3.467648 2.744191,-3.477523 v 0.02537 c 1.903724,0 1.938146,1.012662 2.76905,3.479318 0.828996,2.464875 2.268026,4.567382 3.928882,5.631173 1.659902,1.064706 3.512946,1.375966 6.224627,1.375966 2.709771,0 5.450132,-0.959769 6.749574,-2.388647 1.258293,-1.381298 2.932551,-5.475991 3.320745,-7.448403 0.387255,-1.972441 1.603497,-1.84239 1.603497,-1.84239 l 0.360466,-3.140293 C 69.861038,66.176589 62.7223,65.26877 61.449645,65.26877"
     style="fill:#181823;fill-opacity:1;fill-rule:nonzero;stroke:none;stroke-width:0.0926092"
     id="path40" />
  <path
     d="m 56.022461,39.234948 c 0,0 -5.075893,-0.90186 -7.89406,0.338738 -2.819055,1.241491 -4.511903,4.173161 -6.655236,4.625418 -2.145109,0.449583 -6.428226,0.78834 -8.797687,-0.226234 -2.369457,-1.015355 -6.429992,-0.452235 -7.671476,1.127975 -1.240596,1.579333 -2.932559,5.300243 -1.014472,7.894951 1.916319,2.594704 1.466725,3.720909 1.126203,4.96238 -0.336086,1.241495 -3.04429,4.850662 -2.816393,6.8805 0.224346,2.031585 -0.452254,5.301988 -1.129749,5.527248 -0.679269,0.225226 -2.931675,-3.044311 -3.610057,-3.835304 -0.673945,-0.790107 -3.157798,-5.299342 -2.819049,-7.219208 0.33697,-1.916317 -2.028943,-2.819068 -1.465843,-6.766994 0,0 -2.481189,-4.399281 -0.790113,-7.557089 1.691076,-3.157789 1.09428,-3.405177 3.412305,-5.724986 1.112014,-1.112922 0.196881,-3.7484 -0.140995,-3.073576 -0.33786,0.676617 0.114383,-3.719118 0.901851,-5.63898 0.788341,-1.916335 3.946139,-4.735387 7.444466,-3.94613 0,0 -0.450483,-0.453151 1.354101,-2.029832 1.803698,-1.581128 4.172272,-4.851557 7.669707,-4.62542 3.497438,0.225221 8.570671,-3.835303 16.129526,2.81993 0,0 4.962389,0.224458 5.977745,1.80549 1.015356,1.576681 8.461596,-0.679272 11.729358,8.910285 0,0 8.234579,6.201202 7.445339,13.534845 0,0 -0.458454,3.720891 0.05323,5.525463 0.509912,1.80637 -0.730704,8.461598 -2.197406,9.70044 -1.464066,1.239704 -0.900091,6.790005 -2.367687,8.131692 -1.465855,1.342592 -0.674837,-8.35697 -3.60829,-10.838144 -2.934331,-2.482068 -2.369463,-6.315595 -1.581118,-7.444467 0.790117,-1.127958 1.12975,-11.167154 -8.684172,-12.859106"
     style="fill:#181823;fill-opacity:1;fill-rule:nonzero;stroke:none;stroke-width:0.0886774"
     id="path58" />
  <path
     d="m 36.570506,93.001096 c 0,0 -6.737859,5.162931 -10.253172,0.716801 -3.513298,-4.444117 2.795827,-3.513972 1.649632,-1.433601 0,0 2.771603,-1.788942 0.430077,-3.441943 -2.437097,-1.722326 -5.011498,1.221577 -4.446137,3.888168 0.503439,2.365766 7.20966,5.615235 15.350818,3.884845 5.873669,-1.248502 5.873669,-5.694642 5.873669,-5.694642 0,0 -3.227254,-2.007701 -8.604887,2.080372"
     style="fill:#181823;fill-opacity:1;fill-rule:nonzero;stroke:none;stroke-width:0.0673043"
     id="path110" />
  <path
     d="m 61.953738,88.842353 c -2.342197,1.653001 0.43142,3.441943 0.43142,3.441943 -1.147538,-2.080371 5.16226,-3.010516 1.648294,1.433601 -3.513972,4.44613 -10.253175,-0.716801 -10.253175,-0.716801 -5.376961,-4.088073 -8.604884,-2.080372 -8.604884,-2.080372 0,0 0,4.44614 5.872992,5.694642 8.142502,1.73039 14.85007,-1.519079 15.350146,-3.884845 0.564687,-2.666591 -2.006349,-5.610494 -4.444793,-3.888168"
     style="fill:#181823;fill-opacity:1;fill-rule:nonzero;stroke:none;stroke-width:0.0673043"
     id="path112" />
  <path
     d="m 67.664098,15.603993 c 0,0 -13.054908,1.457156 -20.002216,1.457156 -6.948654,0 -18.897813,-5.174017 -18.897813,-5.174017 l -0.30442,0.754854 -0.260563,0.923322 -0.138985,0.28156 -0.176321,0.529293 -0.14307,0.492092 -0.707219,2.081229 c 0,0 9.721027,5.176845 20.44641,5.176845 10.725314,0 20.382449,0.105874 20.382449,0.105874 l 0.0092,-2.811268 -0.123911,-2.785892"
     style="fill:#2e7d32;fill-opacity:1;fill-rule:nonzero;stroke:none;stroke-width:0.0673043"
     id="path22"
     sodipodi:nodetypes="cscccccccsccc" />
</svg>
