<?xml version="1.0" encoding="UTF-8" standalone="no"?>
<svg
   xmlns:dc="http://purl.org/dc/elements/1.1/"
   xmlns:cc="http://creativecommons.org/ns#"
   xmlns:rdf="http://www.w3.org/1999/02/22-rdf-syntax-ns#"
   xmlns:svg="http://www.w3.org/2000/svg"
   xmlns="http://www.w3.org/2000/svg"
   xmlns:sodipodi="http://sodipodi.sourceforge.net/DTD/sodipodi-0.dtd"
   xmlns:inkscape="http://www.inkscape.org/namespaces/inkscape"
   id="Layer_1"
   data-name="Layer 1"
   viewBox="0 0 87.5 100"
   version="1.1"
   sodipodi:docname="logo_02.svg"
   inkscape:version="1.0.1 (3bc2e813f5, 2020-09-07)">
  <metadata
     id="metadata19">
    <rdf:RDF>
      <cc:Work
         rdf:about="">
        <dc:format>image/svg+xml</dc:format>
        <dc:type
           rdf:resource="http://purl.org/dc/dcmitype/StillImage" />
        <dc:title>Artboard 46</dc:title>
      </cc:Work>
    </rdf:RDF>
  </metadata>
  <sodipodi:namedview
     pagecolor="#ffffff"
     bordercolor="#666666"
     borderopacity="1"
     objecttolerance="10"
     gridtolerance="10"
     guidetolerance="10"
     inkscape:pageopacity="0"
     inkscape:pageshadow="2"
     inkscape:window-width="1920"
     inkscape:window-height="1044"
     id="namedview17"
     showgrid="false"
     inkscape:zoom="16.78"
     inkscape:cx="59.839358"
     inkscape:cy="54.999174"
     inkscape:window-x="1920"
     inkscape:window-y="0"
     inkscape:window-maximized="1"
     inkscape:current-layer="Layer_1" />
  <defs
     id="defs4">
    <style
       id="style2">.cls-1{fill:#1697f6;}.cls-2{fill:#7bc6ff;}.cls-3{fill:#1867c0;}.cls-4{fill:#aeddff;}</style>
  </defs>
  <title
     id="title6">Artboard 46</title>
  <path
     d="m 69.495694,47.17651 c 0,0 -5.258462,-29.03383 -13.884159,-29.03383 -3.366981,0 -5.259831,4.628508 -12.20266,4.628508 -6.942821,0 -8.834799,-4.628508 -12.201161,-4.628508 -8.627319,0 -13.888153,29.03383 -13.888153,29.03383 0,0 -15.7799986,2.946016 -15.7799986,11.797943 0,8.851804 19.7788136,20.814727 41.8693126,20.814727 22.089007,0 41.869191,-11.962923 41.869191,-20.814727 0,-8.851927 -15.782372,-11.797943 -15.782372,-11.797943"
     style="fill:#263238;fill-opacity:1;fill-rule:nonzero;stroke:none;stroke-width:0.12499;opacity:1"
     id="path20" />
  <path
     d="m 69.553019,47.229989 c 0,0 -13.338524,8.05815 -26.116051,8.05815 -12.779999,0 -26.116165,-8.05815 -26.116165,-8.05815 l -2.360616,9.724445 c 0,0 8.750616,10.139374 28.476781,10.139374 19.726052,0 28.478144,-10.139374 28.478144,-10.139374 l -2.362093,-9.724445"
     style="fill:#43a047;fill-opacity:1;fill-rule:nonzero;stroke:none;stroke-width:0.123786"
     id="path22" />
</svg>
